<svg xmlns="http://www.w3.org/2000/svg" viewBox="0 0 317.518 48.826">
  <g transform="translate(-400 -38.337)">
    <g transform="translate(400 38.337)">
      <path d="M46.425,14.98C42.634,9.816,35.209,5.754,28.9,5.67c-13.026-.162-17.993,8.1-19.759,14.717C5.676,21.471,2.574,22.63,0,23.668,1.282,12.04,11.309.787,24.882.837A23.955,23.955,0,0,1,46.847,14.821s.282.636.1.689c-.145.039-.526-.53-.526-.53" transform="translate(0 -0.837)" fill="#938d11"/>
      <path d="M41.018,29.029A27.042,27.042,0,0,1,40.3,33.24c-1.72,6.453-7.454,13.285-18.76,13-6.3-.161-13.753-4.244-17.355-9.457,0,0-.275-.435-.385-.374s.082.535.082.535A23.286,23.286,0,0,0,25.457,50.951a25.291,25.291,0,0,0,24.779-20.3c-2.867-.658-5.956-1.2-9.218-1.624" transform="translate(-0.172 -2.125)" fill="#938d11"/>
    </g>
    <path d="M41.79,24.83c-3.014-2.287-8.145-3.773-13.978-4.1l.611-8.43a.336.336,0,0,0-.375-.394,18.613,18.613,0,0,0-5.03.014.338.338,0,0,0-.347.4l.6,8.485c-5.5.47-10.666,2.012-13.378,4.07a.3.3,0,0,0-.09.328.223.223,0,0,0,.249.173A90.363,90.363,0,0,1,23.5,23.925l1.3,18.26a.284.284,0,0,0,.154.239,1.393,1.393,0,0,0,1.155.01.3.3,0,0,0,.155-.24L27.582,23.9a87.077,87.077,0,0,1,14.05,1.425.228.228,0,0,0,.25-.174.306.306,0,0,0-.092-.326" transform="translate(399.553 37.002)" fill="#003252"/>
    <path d="M310.262,18.132c.737,0,.794-.328.794-.695a2.815,2.815,0,0,0-2.872-3.051c-1.939,0-3.334,1.411-3.8,3.746h5.873M314.7,25.69l-.1.131c-1.3,1.734-3.425,4.047-6.655,4.047-5.462,0-6.908-5.137-6.908-7.857,0-6.694,4.362-9.122,7.295-9.122,3.02,0,6.1,1.96,6.131,5.709a3.586,3.586,0,0,1-.115.791,3.178,3.178,0,0,1-.422.242h-9.7c0,.363.007,1.841.007,1.841.211,3.372,2.349,5.91,4.981,5.91,1.6,0,3.023-.708,4.624-2.3l.13-.134Zm-20.6-5.872c-1.89-.81-3.518-1.506-3.518-3.3a2.289,2.289,0,0,1,2.552-2.137c2.074,0,3.3,1.124,3.653,3.329l.023.158h1.171l-.261-3.789a8.523,8.523,0,0,0-4.2-1.2c-4.137,0-5.642,2.806-5.642,4.691,0,3.172,2.332,4.237,4.392,5.185,1.756.8,3.278,1.5,3.278,3.291,0,1.118-.7,2.313-2.664,2.313-3.1,0-4-2.894-4.25-4.139l-.041-.2-.974.266.4,4.206a8.686,8.686,0,0,0,4.474,1.366c4.286,0,6.237-2.577,6.237-4.973,0-3.087-2.462-4.144-4.639-5.077m-10.607-6.929c-2.074,0-3.51,1.963-4.382,3.3V13.53c0-.159,0-.641-.5-.641l-1.216.525-3.255,1.545-.007.126v.523a1.594,1.594,0,0,0,.535.352c.574.222,1.293.5,1.293,1.233v9.885c0,.937-.433.972-1.5.972h-1.138v1.292l4.375-.073,3.595.047,1.518.027V28.05h-2.156c-1.07,0-1.5-.035-1.5-.972V18.811a2.785,2.785,0,0,1,2.386-2.732,1.673,1.673,0,0,1,1.122.4l1.192.447a1.9,1.9,0,0,0,1.847-1.988,2.121,2.121,0,0,0-2.2-2.051M269.5,27.219V14.236c0-.388,0-.823-.472-.823l-.97.094-4.7.417-.007.167v.778l.5.137c.987.266,2.462.667,2.462,1.166v9.462a7.817,7.817,0,0,1-4.066,1.96c-2.873,0-2.873-2.828-2.873-3.893v-9.08c0-.774,0-1.208-.576-1.208l-4.723.259,0,.176v.84l.172.018c1.8.157,1.937.871,1.937,1.786V25.5a3.992,3.992,0,0,0,4.06,4.371c2.372,0,3.983-1.1,6.036-2.758v2.467a.867.867,0,0,0,.273.263,48.387,48.387,0,0,1,5.172-1.062l.177-.014v-1.1L270.3,27.7c-.641,0-.8-.049-.8-.481M244.607,4.409l-3.9.073-4.931-.073-.007.185V5.7h.191c2.549,0,2.907.7,2.907,3.263V25.705c0,2.289-1.133,2.309-3.017,2.345l-.187,0v1.287l.853-.015,4.437-.058,4.978.073V28.055l-.185,0c-1.909-.035-3.055-.055-3.055-2.345V6c.244-.013,1.357-.093,1.357-.093,2.559,0,5.552,1.593,5.552,6.077,0,2.651-1.435,5.338-4.18,5.338l-1.5-.082-.015.2V18.78l1.98.042c3.741,0,7.749-2.9,7.749-7.221,0-5.308-4.856-7.192-9.019-7.192M223.791,19.818c-1.885-.81-3.516-1.506-3.516-3.3a2.291,2.291,0,0,1,2.554-2.137c2.07,0,3.3,1.124,3.65,3.329l.022.158h1.174l-.263-3.789a8.5,8.5,0,0,0-4.19-1.2c-4.14,0-5.647,2.806-5.647,4.691,0,3.172,2.336,4.237,4.39,5.185,1.761.8,3.28,1.5,3.28,3.291,0,1.118-.7,2.313-2.661,2.313-3.1,0-4.005-2.894-4.25-4.139l-.036-.2-.982.266.4,4.206a8.711,8.711,0,0,0,4.48,1.366c4.285,0,6.243-2.577,6.243-4.973,0-3.087-2.467-4.144-4.649-5.077m-8.678-15.7c-1.079,0-1.752.578-1.752,1.519,0,1.348.8,1.518,1.494,1.518.663,0,1.093.063,1.093.891,0,1.042-.781,1.828-2.328,2.332l-.2.065.4.956.16-.046c2.347-.677,3.7-2.223,3.7-4.23,0-1.452-.8-3.007-2.57-3.007m-1.235,23.93h-.823c-1.058,0-1.567-.038-1.567-.972V18c0-3.294-1.5-5.111-4.235-5.111-2.347,0-4.092,1.174-5.9,2.468v-1.93c0-.5-.308-.538-.4-.538-.071.015-4.495,1.63-4.495,1.63l-.338.107v.931l.117.047c1.661.674,1.927.977,1.927,2.153v9.321c0,.937-.434.972-1.5.972h-.824v1.3l.508-.014,3.482-.063,3.917.073,0-.19v-1.1h-.822c-1.061,0-1.572-.038-1.572-.972V16.664a10.065,10.065,0,0,1,3.9-1.5c1.389,0,3.043.485,3.043,2.8v9.11c0,.937-.43.972-1.5.972h-.82v1.3l.51-.014,3.476-.063,3.919.073,0-.19ZM181.969,25.5a2.362,2.362,0,0,0,2.314,2.344c1.486,0,2.484-.88,3.54-1.811,0,0,.1-.093.142-.094V21.6l-1.025.345c-2.1.653-4.971,1.548-4.971,3.553m11.6,1.343.514.98-.1.1c-.934.869-2.1,1.95-3.61,1.95-1.409,0-2.131-1.179-2.3-2.44-1.645,1.462-3.207,2.44-5.3,2.44a3.726,3.726,0,0,1-3.988-3.608c.151-2.958,1.72-3.514,9.185-6.07V18c0-1.882-1.087-2.835-3.228-2.835a2.258,2.258,0,0,0-2.488,2.272c0,1.136-1.284,1.665-2.155,1.665a.819.819,0,0,1-.825-.888c0-1.95,1.577-2.858,4.153-4.176l.624-.337a4.82,4.82,0,0,1,2.626-.813c1.608,0,4.48,1.048,4.48,3.143v9.747c0,1.816.813,1.816,1.078,1.816a1.574,1.574,0,0,0,1.159-.532Zm-17.431-.221a3.3,3.3,0,0,1-2.34.976c-.478,0-2.029-.2-2.029-2.767V15.688h5.243V13.414h-5.243V9.828h-.606a15.622,15.622,0,0,1-4.314,4.57l-.518.39-.075.715v.184h2.322V26.406c0,2.236,1.255,3.462,3.531,3.462a6.789,6.789,0,0,0,4.816-2.448l.129-.136-.785-.781ZM160.884,7.846a1.958,1.958,0,0,0,1.911-1.95,1.893,1.893,0,0,0-1.911-1.873A1.969,1.969,0,0,0,158.976,5.9a2.006,2.006,0,0,0,1.908,1.95m3.955,20.2h-.788c-1.094,0-1.574-.038-1.574-.972V13.57c0-.616-.3-.681-.43-.681l-.729.2c-.179.106-2.035.743-3.724,1.244l-.136.041v.706a.8.8,0,0,0,.272.255c1.168.626,1.561.835,1.561,2.207v9.531c0,.937-.433.972-1.5.972h-.856v1.3l.6-.018,3.428-.058,3.885.073,0-.19Zm-11.7-15.161c-2.073,0-3.512,1.963-4.385,3.3V13.53c0-.159,0-.641-.5-.641l-1.208.521-3.263,1.549-.008.126v.523a1.613,1.613,0,0,0,.542.352c.572.222,1.285.5,1.285,1.233v9.885c0,.937-.434.972-1.5.972h-1.134v1.292l4.369-.073,3.6.047,1.52.027V28.05h-2.16c-1.066,0-1.5-.035-1.5-.972V18.811a2.782,2.782,0,0,1,2.381-2.732,1.688,1.688,0,0,1,1.129.4l1.19.447a1.9,1.9,0,0,0,1.844-1.988,2.121,2.121,0,0,0-2.2-2.051M129.194,25.5a2.36,2.36,0,0,0,2.311,2.344c1.489,0,2.489-.884,3.553-1.818,0,0,.1-.086.129-.087V21.6l-1.021.348c-2.1.65-4.972,1.549-4.972,3.55m11.6,1.343.515.98-.106.1c-.933.869-2.1,1.95-3.613,1.95-1.4,0-2.126-1.179-2.3-2.44-1.645,1.462-3.206,2.44-5.3,2.44a3.726,3.726,0,0,1-3.988-3.608c.151-2.958,1.723-3.514,9.181-6.07V18c0-1.882-1.083-2.835-3.224-2.835a2.251,2.251,0,0,0-2.483,2.272c0,1.136-1.289,1.665-2.159,1.665a.818.818,0,0,1-.824-.888c0-1.95,1.575-2.858,4.149-4.176l.622-.337a4.83,4.83,0,0,1,2.63-.813c1.607,0,4.481,1.048,4.481,3.143v9.747c0,1.816.812,1.816,1.078,1.816a1.577,1.577,0,0,0,1.159-.532Zm-16.735,1.21h-.713c-1.09,0-1.576-.038-1.576-.972v-9.04c0-3.224-1.634-5.149-4.368-5.149-2.213,0-3.719,1.048-5.313,2.162,0,0-.439.3-.663.453a3.7,3.7,0,0,0-3.809-2.615c-2.437,0-4.019,1.124-5.847,2.428,0,0-.041.028-.052.036V13.57c0-.616-.3-.681-.432-.681l-.727.2c-.164.092-2.031.739-3.725,1.244l-.136.041v.706a.784.784,0,0,0,.274.255c1.165.628,1.556.84,1.556,2.207v9.531c0,.937-.431.972-1.5.972H96.1v1.3l.763-.018,3.332-.058,3.917.073,0-.19v-1.1h-.821c-1.092,0-1.571-.038-1.571-.972V16.664a10.135,10.135,0,0,1,3.964-1.5c2.015,0,2.873,1.237,2.873,4.137v7.776c0,.937-.433.972-1.5.972h-.817v1.3l.507-.014,3.477-.063,3.956.073,0-.19,0-1.1h-.823c-1.087,0-1.607-.038-1.607-.972V16.664a10.184,10.184,0,0,1,3.968-1.5c2.01,0,2.873,1.237,2.873,4.137v7.776c0,.937-.435.972-1.5.972h-.821v1.3l.509-.014,3.48-.063,3.815.073-.006-.19ZM82.4,25.5a2.359,2.359,0,0,0,2.311,2.344c1.486,0,2.482-.88,3.544-1.815,0,0,.1-.089.14-.09V21.6c-.332.111-1.027.345-1.027.345-2.1.653-4.969,1.548-4.969,3.553M94,26.84l.519.98-.106.1c-.937.869-2.1,1.95-3.612,1.95-1.4,0-2.132-1.179-2.308-2.44-1.643,1.462-3.2,2.44-5.289,2.44a3.726,3.726,0,0,1-3.991-3.608c.149-2.958,1.72-3.514,9.186-6.07V18c0-1.882-1.087-2.835-3.23-2.835a2.255,2.255,0,0,0-2.484,2.272c0,1.136-1.286,1.665-2.159,1.665a.816.816,0,0,1-.819-.888c0-1.95,1.576-2.858,4.147-4.176l.628-.337a4.788,4.788,0,0,1,2.623-.813c1.605,0,4.478,1.048,4.478,3.143v9.747c0,1.816.816,1.816,1.08,1.816a1.569,1.569,0,0,0,1.159-.532Zm-17.437-4.3c0,4.756-4.355,7.327-8.454,7.327a12.134,12.134,0,0,1-5.57-1.355L61.8,23.161h1.174l.035.147c.568,2.518,2.432,5.06,5.308,5.06a4.412,4.412,0,0,0,4.628-4.495c0-2.96-2.253-4.137-4.639-5.387-2.71-1.41-5.777-3.009-5.777-7.522,0-4.364,2.959-7.085,7.719-7.085l3.316.368,1.144.184.609,4.855H74.138l-.024-.159a4.065,4.065,0,0,0-4.352-3.745c-2.455,0-4.036,1.7-4.036,4.316,0,2.981,2.37,4.178,4.883,5.451,2.793,1.415,5.952,3.013,5.952,7.391" transform="translate(397.177 37.361)" fill="#003252"/>
    <path d="M329.573,7.815h.319c.364,0,.674-.132.674-.473,0-.242-.177-.484-.674-.484a2.247,2.247,0,0,0-.319.021v.936m0,1.532h-.441V6.582a5.03,5.03,0,0,1,.782-.066,1.443,1.443,0,0,1,.859.209.662.662,0,0,1,.254.574.688.688,0,0,1-.537.671v.022c.241.044.406.264.46.672a2.29,2.29,0,0,0,.177.683h-.465a2.056,2.056,0,0,1-.184-.706.519.519,0,0,0-.6-.483h-.307Zm.464-3.536A2.041,2.041,0,0,0,328.053,7.9a1.991,1.991,0,1,0,3.977.011,2.038,2.038,0,0,0-1.982-2.1Zm.011-.386A2.443,2.443,0,0,1,332.479,7.9a2.45,2.45,0,1,1-2.443-2.477Z" transform="translate(385.038 37.291)" fill="#002341"/>
    <path d="M64.9,43.446H66.62a2.858,2.858,0,0,1,2.4.774,3.419,3.419,0,0,1,.733,2.249,3.051,3.051,0,0,1-.989,2.438,3.218,3.218,0,0,1-2.191.486H64.9V43.446m.825,5.272h.806a2.642,2.642,0,0,0,1.557-.329,2.312,2.312,0,0,0,.784-1.887,2.962,2.962,0,0,0-.577-1.853,1.9,1.9,0,0,0-1.581-.519h-.989Z" transform="translate(397.036 35.554)" fill="#8c7c00"/>
    <path d="M64.9,43.446H66.62a2.858,2.858,0,0,1,2.4.774,3.419,3.419,0,0,1,.733,2.249,3.051,3.051,0,0,1-.989,2.438,3.218,3.218,0,0,1-2.191.486H64.9Zm.825,5.272h.806a2.642,2.642,0,0,0,1.557-.329,2.312,2.312,0,0,0,.784-1.887,2.962,2.962,0,0,0-.577-1.853,1.9,1.9,0,0,0-1.581-.519h-.989Z" transform="translate(397.036 35.554)" fill="none" stroke="#938d11" stroke-miterlimit="10" stroke-width="0.241"/>
    <rect width="0.824" height="5.947" transform="translate(469.529 79)" fill="#8c7c00"/>
    <rect width="0.824" height="5.947" transform="translate(469.529 79)" fill="none" stroke="#938d11" stroke-miterlimit="10" stroke-width="0.241"/>
    <path d="M76.88,43.446h3.732v.7H77.7V46h2.768v.691H77.7v1.977h2.975v.725h-3.8V43.446" transform="translate(396.488 35.554)" fill="#8c7c00"/>
    <path d="M76.88,43.446h3.732v.7H77.7V46h2.768v.691H77.7v1.977h2.975v.725h-3.8Z" transform="translate(396.488 35.554)" fill="none" stroke="#938d11" stroke-miterlimit="10" stroke-width="0.241"/>
    <path d="M88.172,43.446H90.3a1.878,1.878,0,0,1,1.5.436,1.416,1.416,0,0,1,.421,1.063,1.329,1.329,0,0,1-1.006,1.342A1.429,1.429,0,0,1,92.4,47.77a1.593,1.593,0,0,1-.717,1.351,2.3,2.3,0,0,1-1.344.272H88.172V43.446m.8,2.513h1.154c.28,0,1.236,0,1.236-.94,0-.9-.75-.9-1.2-.9H88.971Zm0,2.768h1.409A1.035,1.035,0,0,0,91.55,47.7a1.018,1.018,0,0,0-1.137-1.03H88.971Z" transform="translate(395.973 35.554)" fill="#8c7c00"/>
    <path d="M88.172,43.446H90.3a1.878,1.878,0,0,1,1.5.436,1.416,1.416,0,0,1,.421,1.063,1.329,1.329,0,0,1-1.006,1.342A1.429,1.429,0,0,1,92.4,47.77a1.593,1.593,0,0,1-.717,1.351,2.3,2.3,0,0,1-1.344.272H88.172Zm.8,2.513h1.154c.28,0,1.236,0,1.236-.94,0-.9-.75-.9-1.2-.9H88.971Zm0,2.768h1.409A1.035,1.035,0,0,0,91.55,47.7a1.018,1.018,0,0,0-1.137-1.03H88.971Z" transform="translate(395.973 35.554)" fill="none" stroke="#938d11" stroke-miterlimit="10" stroke-width="0.241"/>
    <path d="M97.419,43.446H98.3l2.406,5.947h-.9l-.642-1.549h-2.76l-.642,1.549h-.848l2.5-5.947m-.75,3.731h2.249l-1.1-2.916Z" transform="translate(395.665 35.554)" fill="#8c7c00"/>
    <path d="M97.419,43.446H98.3l2.406,5.947h-.9l-.642-1.549h-2.76l-.642,1.549h-.848Zm-.75,3.731h2.249l-1.1-2.916Z" transform="translate(395.665 35.554)" fill="none" stroke="#938d11" stroke-miterlimit="10" stroke-width="0.241"/>
    <path d="M103.539,43.446h2.125a2.646,2.646,0,0,1,1.368.28,1.4,1.4,0,0,1,.658,1.211,1.44,1.44,0,0,1-1.12,1.442c.569.148.825.4.907,1.144a7.927,7.927,0,0,0,.37,1.87h-.881a10.228,10.228,0,0,1-.272-1.573c-.1-.867-.305-1.113-1.3-1.113h-1.037v2.685h-.816V43.446m.8,2.561h1.3a1.937,1.937,0,0,0,.783-.131.847.847,0,0,0,.4-.775c0-.964-.857-.964-1.186-.964h-1.3Z" transform="translate(395.271 35.554)" fill="#8c7c00"/>
    <path d="M103.539,43.446h2.125a2.646,2.646,0,0,1,1.368.28,1.4,1.4,0,0,1,.658,1.211,1.44,1.44,0,0,1-1.12,1.442c.569.148.825.4.907,1.144a7.927,7.927,0,0,0,.37,1.87h-.881a10.228,10.228,0,0,1-.272-1.573c-.1-.867-.305-1.113-1.3-1.113h-1.037v2.685h-.816Zm.8,2.561h1.3a1.937,1.937,0,0,0,.783-.131.847.847,0,0,0,.4-.775c0-.964-.857-.964-1.186-.964h-1.3Z" transform="translate(395.271 35.554)" fill="none" stroke="#938d11" stroke-miterlimit="10" stroke-width="0.241"/>
    <path d="M111.058,43.446h1.458l1.681,4.9,1.722-4.9h1.359v5.947h-.807V44.039l-1.953,5.355h-.782l-1.879-5.321v5.321h-.8V43.446" transform="translate(394.927 35.554)" fill="#8c7c00"/>
    <path d="M111.058,43.446h1.458l1.681,4.9,1.722-4.9h1.359v5.947h-.807V44.039l-1.953,5.355h-.782l-1.879-5.321v5.321h-.8Z" transform="translate(394.927 35.554)" fill="none" stroke="#938d11" stroke-miterlimit="10" stroke-width="0.241"/>
    <path d="M121.741,43.446V46h2.826V43.446h.824v5.947h-.824V46.708h-2.826v2.685h-.824V43.446h.824" transform="translate(394.477 35.554)" fill="#8c7c00"/>
    <path d="M121.741,43.446V46h2.826V43.446h.824v5.947h-.824V46.708h-2.826v2.685h-.824V43.446Z" transform="translate(394.477 35.554)" fill="none" stroke="#938d11" stroke-miterlimit="10" stroke-width="0.241"/>
    <path d="M128.773,43.446H132.5v.7H129.6V46h2.768v.691H129.6v1.977h2.974v.725h-3.8V43.446" transform="translate(394.118 35.554)" fill="#8c7c00"/>
    <path d="M128.773,43.446H132.5v.7H129.6V46h2.768v.691H129.6v1.977h2.974v.725h-3.8Z" transform="translate(394.118 35.554)" fill="none" stroke="#938d11" stroke-miterlimit="10" stroke-width="0.241"/>
    <path d="M135.86,43.446h2.125a2.645,2.645,0,0,1,1.368.28,1.4,1.4,0,0,1,.659,1.211,1.443,1.443,0,0,1-1.12,1.442c.568.148.824.4.906,1.144a7.881,7.881,0,0,0,.371,1.87h-.882a10.231,10.231,0,0,1-.271-1.573c-.1-.867-.305-1.113-1.3-1.113h-1.037v2.685h-.816V43.446m.8,2.561h1.3a1.933,1.933,0,0,0,.782-.131.845.845,0,0,0,.4-.775c0-.964-.858-.964-1.186-.964h-1.3Z" transform="translate(393.795 35.554)" fill="#8c7c00"/>
    <path d="M135.86,43.446h2.125a2.645,2.645,0,0,1,1.368.28,1.4,1.4,0,0,1,.659,1.211,1.443,1.443,0,0,1-1.12,1.442c.568.148.824.4.906,1.144a7.881,7.881,0,0,0,.371,1.87h-.882a10.231,10.231,0,0,1-.271-1.573c-.1-.867-.305-1.113-1.3-1.113h-1.037v2.685h-.816Zm.8,2.561h1.3a1.933,1.933,0,0,0,.782-.131.845.845,0,0,0,.4-.775c0-.964-.858-.964-1.186-.964h-1.3Z" transform="translate(393.795 35.554)" fill="none" stroke="#938d11" stroke-miterlimit="10" stroke-width="0.241"/>
    <path d="M142.9,48.57l3.436-4.4h-3.345v-.725h4.325v.815l-3.467,4.407h3.525v.725H142.9V48.57" transform="translate(393.473 35.554)" fill="#8c7c00"/>
    <path d="M142.9,48.57l3.436-4.4h-3.345v-.725h4.325v.815l-3.467,4.407h3.525v.725H142.9Z" transform="translate(393.473 35.554)" fill="none" stroke="#938d11" stroke-miterlimit="10" stroke-width="0.241"/>
    <rect width="0.825" height="5.947" transform="translate(543.495 79)" fill="#8c7c00"/>
    <rect width="0.825" height="5.947" transform="translate(543.495 79)" fill="none" stroke="#938d11" stroke-miterlimit="10" stroke-width="0.241"/>
    <path d="M158.511,44.924c-.091-.553-.535-.931-1.343-.931a1.712,1.712,0,0,0-1.343.5,2.86,2.86,0,0,0-.635,1.912,3.123,3.123,0,0,0,.544,1.87,2.032,2.032,0,0,0,1.582.584,4.154,4.154,0,0,0,1.293-.189V46.909h-1.359v-.683h2.183v2.932a6.5,6.5,0,0,1-2.117.363,2.828,2.828,0,0,1-2.159-.742,3.177,3.177,0,0,1-.832-2.265,3.324,3.324,0,0,1,1.277-2.751,3.1,3.1,0,0,1,1.656-.421,2.35,2.35,0,0,1,1.755.635,1.364,1.364,0,0,1,.4.948h-.9" transform="translate(392.951 35.559)" fill="#8c7c00"/>
    <path d="M158.511,44.924c-.091-.553-.535-.931-1.343-.931a1.712,1.712,0,0,0-1.343.5,2.86,2.86,0,0,0-.635,1.912,3.123,3.123,0,0,0,.544,1.87,2.032,2.032,0,0,0,1.582.584,4.154,4.154,0,0,0,1.293-.189V46.909h-1.359v-.683h2.183v2.932a6.5,6.5,0,0,1-2.117.363,2.828,2.828,0,0,1-2.159-.742,3.177,3.177,0,0,1-.832-2.265,3.324,3.324,0,0,1,1.277-2.751,3.1,3.1,0,0,1,1.656-.421,2.35,2.35,0,0,1,1.755.635,1.364,1.364,0,0,1,.4.948Z" transform="translate(392.951 35.559)" fill="none" stroke="#938d11" stroke-miterlimit="10" stroke-width="0.241"/>
    <path d="M162.83,43.446h3.731v.7h-2.908V46h2.768v.691h-2.768v1.977h2.974v.725h-3.8V43.446" transform="translate(392.563 35.554)" fill="#8c7c00"/>
    <path d="M162.83,43.446h3.731v.7h-2.908V46h2.768v.691h-2.768v1.977h2.974v.725h-3.8Z" transform="translate(392.563 35.554)" fill="none" stroke="#938d11" stroke-miterlimit="10" stroke-width="0.241"/>
    <path d="M169.995,43.446h1.145l2.924,4.918V43.446h.758v5.947h-1.054l-3.024-5.05v5.05h-.749V43.446" transform="translate(392.235 35.554)" fill="#8c7c00"/>
    <path d="M169.995,43.446h1.145l2.924,4.918V43.446h.758v5.947h-1.054l-3.024-5.05v5.05h-.749Z" transform="translate(392.235 35.554)" fill="none" stroke="#938d11" stroke-miterlimit="10" stroke-width="0.241"/>
    <path d="M183.085,47.65c.016.412.066,1.178,1.433,1.178,1.235,0,1.392-.765,1.392-1.063,0-.666-.536-.8-1.368-1a5.284,5.284,0,0,1-1.614-.527,1.344,1.344,0,0,1-.618-1.17c0-1.211,1.145-1.738,2.266-1.738a2.323,2.323,0,0,1,1.672.585,1.526,1.526,0,0,1,.363,1.013h-.857c-.041-.742-.667-.907-1.252-.907-.823,0-1.318.37-1.318.964,0,.528.345.708,1.071.882a5.613,5.613,0,0,1,1.92.626,1.362,1.362,0,0,1,.593,1.185c0,1.055-.824,1.854-2.348,1.854a2.4,2.4,0,0,1-1.846-.675,1.868,1.868,0,0,1-.346-1.2h.858" transform="translate(391.677 35.559)" fill="#8c7c00"/>
    <path d="M183.085,47.65c.016.412.066,1.178,1.433,1.178,1.235,0,1.392-.765,1.392-1.063,0-.666-.536-.8-1.368-1a5.284,5.284,0,0,1-1.614-.527,1.344,1.344,0,0,1-.618-1.17c0-1.211,1.145-1.738,2.266-1.738a2.323,2.323,0,0,1,1.672.585,1.526,1.526,0,0,1,.363,1.013h-.857c-.041-.742-.667-.907-1.252-.907-.823,0-1.318.37-1.318.964,0,.528.345.708,1.071.882a5.613,5.613,0,0,1,1.92.626,1.362,1.362,0,0,1,.593,1.185c0,1.055-.824,1.854-2.348,1.854a2.4,2.4,0,0,1-1.846-.675,1.868,1.868,0,0,1-.346-1.2Z" transform="translate(391.677 35.559)" fill="none" stroke="#938d11" stroke-miterlimit="10" stroke-width="0.241"/>
    <path d="M191.638,43.446h.882l2.406,5.947h-.9l-.642-1.549h-2.759l-.643,1.549h-.848l2.5-5.947m-.75,3.731h2.25l-1.1-2.916Z" transform="translate(391.361 35.554)" fill="#8c7c00"/>
    <path d="M191.638,43.446h.882l2.406,5.947h-.9l-.642-1.549h-2.759l-.643,1.549h-.848Zm-.75,3.731h2.25l-1.1-2.916Z" transform="translate(391.361 35.554)" fill="none" stroke="#938d11" stroke-miterlimit="10" stroke-width="0.241"/>
    <path d="M197.793,43.446h1.458l1.681,4.9,1.721-4.9h1.36v5.947H203.2V44.039l-1.952,5.355h-.783l-1.878-5.321v5.321h-.8V43.446" transform="translate(390.966 35.554)" fill="#8c7c00"/>
    <path d="M197.793,43.446h1.458l1.681,4.9,1.721-4.9h1.36v5.947H203.2V44.039l-1.952,5.355h-.783l-1.878-5.321v5.321h-.8Z" transform="translate(390.966 35.554)" fill="none" stroke="#938d11" stroke-miterlimit="10" stroke-width="0.241"/>
    <path d="M209.474,43.446h.881l2.407,5.947h-.9l-.642-1.549h-2.76l-.642,1.549h-.848l2.5-5.947m-.75,3.731h2.25l-1.1-2.916Z" transform="translate(390.547 35.554)" fill="#8c7c00"/>
    <path d="M209.474,43.446h.881l2.407,5.947h-.9l-.642-1.549h-2.76l-.642,1.549h-.848Zm-.75,3.731h2.25l-1.1-2.916Z" transform="translate(390.547 35.554)" fill="none" stroke="#938d11" stroke-miterlimit="10" stroke-width="0.241"/>
    <path d="M215.594,43.446h2.125a2.641,2.641,0,0,1,1.367.28,1.4,1.4,0,0,1,.659,1.211,1.441,1.441,0,0,1-1.119,1.442c.568.148.823.4.906,1.144a7.927,7.927,0,0,0,.37,1.87h-.881a10.23,10.23,0,0,1-.272-1.573c-.1-.867-.3-1.113-1.3-1.113H216.41v2.685h-.816V43.446m.8,2.561h1.3a1.937,1.937,0,0,0,.783-.131.847.847,0,0,0,.4-.775c0-.964-.858-.964-1.187-.964h-1.3Z" transform="translate(390.153 35.554)" fill="#8c7c00"/>
    <path d="M215.594,43.446h2.125a2.641,2.641,0,0,1,1.367.28,1.4,1.4,0,0,1,.659,1.211,1.441,1.441,0,0,1-1.119,1.442c.568.148.823.4.906,1.144a7.927,7.927,0,0,0,.37,1.87h-.881a10.23,10.23,0,0,1-.272-1.573c-.1-.867-.3-1.113-1.3-1.113H216.41v2.685h-.816Zm.8,2.561h1.3a1.937,1.937,0,0,0,.783-.131.847.847,0,0,0,.4-.775c0-.964-.858-.964-1.187-.964h-1.3Z" transform="translate(390.153 35.554)" fill="none" stroke="#938d11" stroke-miterlimit="10" stroke-width="0.241"/>
    <rect width="0.825" height="5.947" transform="translate(612.906 79)" fill="#8c7c00"/>
    <rect width="0.825" height="5.947" transform="translate(612.906 79)" fill="none" stroke="#938d11" stroke-miterlimit="10" stroke-width="0.241"/>
    <path d="M228.638,49.393V44.146h-1.994v-.7h4.8v.7h-1.994v5.248h-.815" transform="translate(389.648 35.554)" fill="#8c7c00"/>
    <path d="M228.638,49.393V44.146h-1.994v-.7h4.8v.7h-1.994v5.248Z" transform="translate(389.648 35.554)" fill="none" stroke="#938d11" stroke-miterlimit="10" stroke-width="0.241"/>
    <path d="M234.12,43.446h3.731v.7h-2.908V46h2.768v.691h-2.768v1.977h2.974v.725h-3.8V43.446" transform="translate(389.306 35.554)" fill="#8c7c00"/>
    <path d="M234.12,43.446h3.731v.7h-2.908V46h2.768v.691h-2.768v1.977h2.974v.725h-3.8Z" transform="translate(389.306 35.554)" fill="none" stroke="#938d11" stroke-miterlimit="10" stroke-width="0.241"/>
    <path d="M241.208,43.446h2.125a2.645,2.645,0,0,1,1.368.28,1.4,1.4,0,0,1,.658,1.211,1.44,1.44,0,0,1-1.12,1.442c.569.148.825.4.907,1.144a7.927,7.927,0,0,0,.37,1.87h-.882a10.465,10.465,0,0,1-.271-1.573c-.1-.867-.3-1.113-1.3-1.113h-1.038v2.685h-.815V43.446m.8,2.561h1.3a1.939,1.939,0,0,0,.783-.131.847.847,0,0,0,.4-.775c0-.964-.857-.964-1.186-.964h-1.3Z" transform="translate(388.983 35.554)" fill="#8c7c00"/>
    <path d="M241.208,43.446h2.125a2.645,2.645,0,0,1,1.368.28,1.4,1.4,0,0,1,.658,1.211,1.44,1.44,0,0,1-1.12,1.442c.569.148.825.4.907,1.144a7.927,7.927,0,0,0,.37,1.87h-.882a10.465,10.465,0,0,1-.271-1.573c-.1-.867-.3-1.113-1.3-1.113h-1.038v2.685h-.815Zm.8,2.561h1.3a1.939,1.939,0,0,0,.783-.131.847.847,0,0,0,.4-.775c0-.964-.857-.964-1.186-.964h-1.3Z" transform="translate(388.983 35.554)" fill="none" stroke="#938d11" stroke-miterlimit="10" stroke-width="0.241"/>
  </g>
</svg>
